<svg version="1.1" id="Layer_1" xmlns="http://www.w3.org/2000/svg" xmlns:xlink="http://www.w3.org/1999/xlink" x="0px" y="0px"
	 width="100%" viewBox="0 0 496 496" enable-background="new 0 0 496 496" xml:space="preserve">
<path fill="#000000" opacity="1.000000" stroke="none" 
	d="
M201.375000,497.000000 
	C201.368805,487.161530 204.543060,477.811859 206.044022,468.168030 
	C206.757553,463.583496 207.821762,459.053070 208.749680,454.502686 
	C209.106186,452.754547 209.390091,450.940521 211.157288,449.911926 
	C213.723953,451.372284 212.810425,453.430206 212.437881,455.280487 
	C209.691422,468.921509 206.903030,482.554077 204.063934,496.594666 
	C203.250000,497.000000 202.500000,497.000000 201.375000,497.000000 
z"/>
<path fill="#000000" opacity="1.000000" stroke="none" 
	d="
M298.375000,497.000000 
	C295.544220,481.404724 291.379791,466.094757 289.345245,449.898102 
	C293.133026,451.620300 300.631866,483.060425 301.069305,496.575439 
	C300.250000,497.000000 299.500000,497.000000 298.375000,497.000000 
z"/>
<path fill="#000000" opacity="1.000000" stroke="none" 
	d="
M497.000000,203.625000 
	C481.419006,206.707901 466.072144,210.909210 450.099945,211.377121 
	C465.191498,206.598679 480.608429,203.441910 496.584167,200.958084 
	C497.000000,201.750000 497.000000,202.500000 497.000000,203.625000 
z"/>
<path fill="#000000" opacity="1.000000" stroke="none" 
	d="
M497.000000,300.625000 
	C487.681366,300.673218 478.808685,297.768463 469.694916,296.252686 
	C464.637207,295.411560 459.627319,294.284363 454.592834,293.301666 
	C452.837646,292.959045 450.915710,292.961853 449.913452,290.720123 
	C452.014801,288.370361 454.515076,289.749481 456.708649,290.163422 
	C469.882477,292.649536 483.029388,295.278320 496.592651,297.929657 
	C497.000000,298.750000 497.000000,299.500000 497.000000,300.625000 
z"/>
<path fill="#000000" opacity="1.000000" stroke="none" 
	d="
M249.399994,497.000000 
	C250.511444,486.094391 249.220291,475.129089 249.717468,464.204834 
	C249.867752,460.902466 248.791763,457.395020 250.814804,453.939789 
	C253.421570,455.601044 252.865540,457.908630 252.848694,459.902069 
	C252.763153,470.016541 252.543381,480.129883 252.456345,490.244354 
	C252.439346,492.221649 252.801315,494.202209 252.994247,496.590637 
	C251.933334,497.000000 250.866653,497.000000 249.399994,497.000000 
z"/>
<path fill="#000000" opacity="1.000000" stroke="none" 
	d="
M252.625000,1.000000 
	C251.760712,16.574749 253.120300,32.239258 251.385223,47.846687 
	C248.811874,40.469456 249.910156,32.854832 249.732376,25.357796 
	C249.547180,17.548862 249.749695,9.730734 249.891342,1.458313 
	C250.750000,1.000000 251.500000,1.000000 252.625000,1.000000 
z"/>
<path fill="#000000" opacity="1.000000" stroke="none" 
	d="
M1.000000,249.399994 
	C14.593813,250.431900 28.229290,249.289001 41.839172,249.681396 
	C43.909832,249.741104 46.155075,248.984528 48.174740,250.693130 
	C47.302467,253.135834 45.219425,252.328751 43.633152,252.334915 
	C31.498175,252.382141 19.362829,252.326035 7.227685,252.348541 
	C5.411960,252.351898 3.596684,252.597702 1.390600,252.865677 
	C1.000000,251.933334 1.000000,250.866653 1.000000,249.399994 
z"/>
<path fill="#000000" opacity="1.000000" stroke="none" 
	d="
M497.000000,252.600006 
	C485.426086,251.514954 473.798798,252.777618 462.206635,252.308411 
	C459.627838,252.204056 456.917755,253.015549 454.277496,251.410309 
	C455.419098,248.853836 457.679626,249.773575 459.398468,249.724075 
	C471.665497,249.370697 483.948822,250.216614 496.604919,249.120850 
	C497.000000,250.066666 497.000000,251.133347 497.000000,252.600006 
z"/>
<path fill="orange" opacity="1.000000" stroke="none" 
	d="
M190.941589,186.010132 
	C191.030243,181.350403 190.944809,177.176071 191.240417,173.028870 
	C191.865692,164.256531 195.707214,157.397705 203.885406,153.540207 
	C207.437408,151.864807 208.377197,149.406906 207.176605,145.847229 
	C206.858002,144.902557 206.489639,143.934616 206.410477,142.955826 
	C205.936493,137.094254 203.026520,134.482712 197.004959,133.207764 
	C184.450897,130.549728 176.633667,117.438095 178.828690,104.456093 
	C180.969803,91.792915 192.638489,82.851151 205.942780,83.678459 
	C218.839127,84.480400 228.899719,94.989731 229.367752,107.876831 
	C229.652298,115.711723 227.091354,122.297012 221.288330,127.476234 
	C218.838699,129.662537 218.439941,131.744583 219.240891,134.922592 
	C223.312790,151.079224 223.207016,151.275330 239.897568,151.527100 
	C256.218872,151.773315 272.546204,151.654205 288.870819,151.637512 
	C302.326691,151.623764 311.342987,159.553329 312.423920,172.889633 
	C313.866455,190.687241 312.432526,208.503754 312.414520,226.312317 
	C312.366730,273.620789 312.352509,320.929352 312.357513,368.237854 
	C312.359131,383.529907 303.512756,392.412476 288.239471,392.387695 
	C263.918915,392.348267 239.580719,391.784210 215.284836,392.548981 
	C202.298676,392.957764 190.558792,383.476318 190.610184,367.908539 
	C190.760315,322.432770 190.737183,276.956421 190.798965,231.480301 
	C190.819336,216.489441 190.891586,201.498642 190.941589,186.010132 
M269.081268,246.193924 
	C263.876129,253.558777 256.518097,259.199615 251.316483,267.472351 
	C262.309998,268.499115 272.360321,266.838013 282.428802,266.484955 
	C291.601807,266.163330 294.012329,267.944000 294.348267,277.148407 
	C294.621094,284.623260 295.038544,292.092865 295.400543,299.564362 
	C295.475159,301.104706 295.349304,302.772064 297.958588,303.878723 
	C297.958588,281.299835 297.965210,259.336151 297.951630,237.372437 
	C297.949524,233.971146 295.687927,233.330963 292.891846,233.333862 
	C285.895386,233.341110 278.895203,233.444244 271.903687,233.250092 
	C267.044983,233.115158 263.610352,229.643097 263.773743,225.544586 
	C263.939697,221.383530 266.960052,218.779800 271.961975,218.713776 
	C278.790985,218.623611 285.624146,218.548950 292.450806,218.692230 
	C296.383392,218.774780 298.488983,217.186539 298.507782,213.228195 
	C298.567139,200.735611 298.753235,188.239182 298.512115,175.751556 
	C298.399384,169.912323 294.985748,166.458359 289.648773,166.252136 
	C270.676514,165.519058 251.696915,165.074524 232.705429,165.339554 
	C229.068451,165.390320 227.889847,166.946503 228.764114,170.364319 
	C230.410110,176.799088 232.044907,183.236877 233.649597,189.682037 
	C235.099030,195.503540 233.454987,199.248047 228.921967,200.581909 
	C224.501648,201.882614 221.269760,199.370316 219.650284,193.313400 
	C217.632156,185.765518 215.652084,178.207458 213.647415,170.655975 
	C213.247849,169.150772 212.629517,167.740891 210.869919,167.510803 
	C209.124344,167.282562 208.109283,168.500351 207.291855,169.782913 
	C205.819855,172.092560 205.305283,174.646973 205.321045,177.394119 
	C205.383179,188.221924 205.515686,199.053635 205.283829,209.876648 
	C205.193192,214.107025 206.378418,216.411209 210.835373,217.012894 
	C214.855087,217.555557 217.079391,220.521500 216.944794,224.377289 
	C216.808929,228.269440 214.248718,230.941360 210.261948,231.235077 
	C206.199188,231.534393 205.081375,233.793228 205.444473,237.232941 
	C206.077499,243.229340 205.315704,249.198318 205.320984,255.180481 
	C205.353745,292.329681 205.329941,329.478882 205.335983,366.628113 
	C205.337326,374.841858 208.153183,377.616943 216.336182,377.967010 
	C239.644302,378.964142 262.963776,378.633240 286.279938,378.665985 
	C294.595642,378.677643 297.717896,375.547668 297.748230,367.180328 
	C297.811005,349.855347 297.811340,332.530060 297.776245,315.204987 
	C297.772369,313.285889 298.262970,311.191467 296.429260,309.147888 
	C294.537415,311.905396 292.134705,313.973206 288.810852,314.216370 
	C278.207184,314.992188 267.601715,315.797699 256.983002,316.292297 
	C251.051666,316.568573 248.519104,314.097412 247.849426,308.155701 
	C247.626465,306.177277 247.908920,304.137573 247.641571,302.169189 
	C246.374832,292.842468 247.337234,283.291382 245.067642,273.725250 
	C241.355972,274.380188 237.827911,275.181396 234.861893,272.487457 
	C226.726501,265.098297 218.517059,257.788483 210.486176,250.287476 
	C207.042786,247.071304 206.870407,243.197922 210.016724,239.650909 
	C217.198746,231.554153 224.426956,223.491867 231.861786,215.628693 
	C235.345306,211.944443 239.501160,211.660172 243.027359,214.741302 
	C251.177505,221.862778 259.166870,229.170425 267.136871,236.494614 
	C269.771484,238.915771 271.019440,241.896057 269.081268,246.193924 
M280.657471,295.192841 
	C280.625549,292.203583 280.788300,289.195312 280.498840,286.231201 
	C280.275238,283.941528 279.786499,281.349640 276.579834,281.427551 
	C271.437805,281.552460 265.992065,280.179504 261.563873,284.178650 
	C261.368805,284.354858 261.364685,284.812134 261.374664,285.135315 
	C261.512421,289.603424 260.913696,294.114105 262.155518,298.520203 
	C262.425781,299.479095 262.576630,300.480499 263.515869,301.074097 
	C264.252075,301.539337 278.938354,300.316406 279.642365,299.752228 
	C280.868713,298.769348 280.642883,297.392029 280.657471,295.192841 
M197.877640,100.237991 
	C193.911331,103.302589 192.281357,107.294579 193.827057,112.106049 
	C195.116257,116.119141 197.720612,119.051025 202.233826,119.653664 
	C207.351166,120.336960 211.357605,118.285172 213.674896,113.567345 
	C215.718643,109.406410 215.009140,105.413910 212.099884,101.954979 
	C208.725815,97.943451 204.274872,97.356071 197.877640,100.237991 
M250.741730,244.565460 
	C251.558868,243.412704 251.205841,242.495621 250.372665,241.447693 
	C241.393036,230.153915 237.316269,230.206223 228.404022,241.511414 
	C226.656952,243.727524 226.746475,245.255371 228.773193,246.993683 
	C231.553085,249.378052 234.268524,251.837372 237.035019,254.237579 
	C238.855331,255.816895 240.581726,255.769409 242.249908,253.917587 
	C244.922958,250.950256 247.649948,248.031540 250.741730,244.565460 
z"/>
<path fill="#000000" opacity="1.000000" stroke="none" 
	d="
M42.918785,113.005569 
	C44.354214,110.027702 46.046021,111.612274 47.450485,112.546288 
	C58.518970,119.907173 69.540199,127.339157 80.569397,134.759033 
	C81.807259,135.591812 83.366608,136.466278 82.399590,138.261292 
	C81.701180,139.557724 80.364662,139.149887 79.339912,138.460983 
	C67.350388,130.400864 55.374619,122.320259 43.408741,114.225067 
	C43.167580,114.061920 43.088890,113.658607 42.918785,113.005569 
z"/>
<path fill="#000000" opacity="1.000000" stroke="none" 
	d="
M162.023895,31.077602 
	C166.148972,42.093365 171.729370,52.195499 174.812042,64.411148 
	C169.896011,61.771587 154.182770,24.385748 155.286133,19.542572 
	C159.803696,22.151518 159.803406,27.101925 162.023895,31.077602 
z"/>
<path fill="#000000" opacity="1.000000" stroke="none" 
	d="
M55.913982,172.083313 
	C43.893059,166.792099 31.628052,163.042023 20.326973,157.023178 
	C19.980095,156.838440 20.057474,155.857101 19.629946,153.691391 
	C35.463333,159.309387 49.904408,165.479935 64.999069,172.421814 
	C60.930649,175.657425 58.739998,172.657578 55.913982,172.083313 
z"/>
<path fill="#000000" opacity="1.000000" stroke="none" 
	d="
M75.747604,428.023682 
	C72.925728,427.289612 73.868546,425.666016 74.870872,424.662262 
	C84.957809,414.561401 95.126915,404.542419 105.311806,394.540009 
	C105.705353,394.153564 106.491516,394.166840 107.124222,393.985413 
	C107.635567,397.372040 87.438026,419.326416 75.747604,428.023682 
z"/>
<path fill="#000000" opacity="1.000000" stroke="none" 
	d="
M419.283112,421.728851 
	C410.441284,412.832489 401.571838,404.441315 393.736877,395.107178 
	C398.763397,394.803955 427.167480,423.222107 427.591827,427.920685 
	C423.537231,427.670441 422.186737,423.899994 419.283112,421.728851 
z"/>
<path fill="#000000" opacity="1.000000" stroke="none" 
	d="
M76.594139,79.261696 
	C75.290367,77.634354 73.376678,76.655319 74.191841,74.414589 
	C78.479698,74.512993 106.970901,102.806999 107.736664,109.157410 
	C96.058014,99.525269 86.951736,88.979202 76.594139,79.261696 
z"/>
<path fill="#000000" opacity="1.000000" stroke="none" 
	d="
M407.700562,91.700424 
	C414.263092,85.510635 419.971527,78.895798 426.757355,73.400063 
	C429.008331,75.978264 427.433960,77.182907 426.348816,78.275200 
	C416.983368,87.702126 407.572021,97.083504 398.150543,106.454506 
	C397.230011,107.370110 396.255463,108.404709 393.286011,107.232552 
	C397.209229,101.102211 402.889191,96.976120 407.700562,91.700424 
z"/>
<path fill="#000000" opacity="1.000000" stroke="none" 
	d="
M129.494385,65.543869 
	C132.774780,71.283951 137.361633,75.933189 139.253464,82.693512 
	C134.664444,81.396858 112.041306,47.788406 112.057800,42.473679 
	C117.183220,44.741814 118.337784,49.797951 121.087402,53.342232 
	C124.036476,57.143600 126.578476,61.260780 129.494385,65.543869 
z"/>
<path fill="#000000" opacity="1.000000" stroke="none" 
	d="
M123.902863,437.938477 
	C128.619476,431.510559 131.867401,424.417419 137.423050,419.039124 
	C140.024429,420.920258 138.708633,422.357025 137.832870,423.670746 
	C130.469254,434.716827 123.078377,445.744812 115.663216,456.756378 
	C114.861832,457.946411 114.152565,459.435120 111.141365,458.957184 
	C113.736389,450.868317 119.867989,445.182617 123.902863,437.938477 
z"/>
<path fill="#000000" opacity="1.000000" stroke="none" 
	d="
M372.539429,429.473938 
	C378.940063,439.157837 385.134552,448.544403 391.517944,458.217255 
	C387.633514,459.664032 386.898010,457.555908 385.978088,456.190918 
	C378.743439,445.455811 371.570343,434.678894 364.441559,423.873108 
	C363.601410,422.599640 361.851074,420.915161 363.746643,419.563110 
	C365.699829,418.169983 366.560486,420.386017 367.439026,421.673950 
	C369.121307,424.140106 370.707336,426.671967 372.539429,429.473938 
z"/>
<path fill="#000000" opacity="1.000000" stroke="none" 
	d="
M335.676453,450.398376 
	C339.903442,460.971283 344.633362,470.955688 347.992828,481.457092 
	C344.985229,482.560608 344.390045,481.014282 343.817657,479.657318 
	C338.645477,467.394928 333.503143,455.119934 328.369446,442.841370 
	C327.782928,441.438599 327.381134,439.992798 328.995789,437.806915 
	C332.914520,441.104431 333.515289,446.010681 335.676453,450.398376 
z"/>
<path fill="#000000" opacity="1.000000" stroke="none" 
	d="
M419.987244,366.049805 
	C420.259399,362.403931 420.447784,362.197174 423.360901,364.052063 
	C428.962555,367.618774 434.430176,371.395966 439.955139,375.083160 
	C445.203583,378.585785 450.483154,382.042908 455.686249,385.611542 
	C457.213013,386.658691 459.461029,387.290009 459.112549,390.148834 
	C458.510498,390.275757 457.723724,390.716980 457.320648,390.486664 
	C444.483795,383.152527 432.667816,374.247070 419.987244,366.049805 
z"/>
<path fill="#000000" opacity="1.000000" stroke="none" 
	d="
M74.878738,370.903381 
	C64.229370,377.574921 54.563309,385.185974 43.858299,391.058380 
	C43.342857,390.254395 42.827419,389.450439 42.311981,388.646454 
	C55.099026,379.519745 68.253281,370.930817 81.987152,363.057800 
	C82.300751,368.128906 77.475533,368.237640 74.878738,370.903381 
z"/>
<path fill="#000000" opacity="1.000000" stroke="none" 
	d="
M465.064575,337.849426 
	C471.051239,340.620819 477.485779,341.705780 482.774750,346.291534 
	C478.427185,347.905304 441.027893,332.782196 437.881744,328.350922 
	C443.357880,327.205322 447.146240,330.682526 451.362122,332.192413 
	C455.888947,333.813690 460.268524,335.846008 465.064575,337.849426 
z"/>
<path fill="#000000" opacity="1.000000" stroke="none" 
	d="
M421.025116,138.962509 
	C418.417389,137.907654 419.239838,136.539612 420.611481,135.618866 
	C432.500977,127.637741 444.438904,119.728500 456.389404,111.838745 
	C457.085358,111.379288 457.994934,111.463593 458.721954,112.066269 
	C457.773315,115.345238 437.007446,130.287079 421.025116,138.962509 
z"/>
<path fill="#000000" opacity="1.000000" stroke="none" 
	d="
M161.311493,472.212646 
	C159.344040,475.718170 159.387024,479.980316 155.710922,482.279724 
	C154.212601,478.047150 169.424911,440.807739 174.869415,437.512268 
	C171.362183,450.251404 165.618484,460.771484 161.311493,472.212646 
z"/>
<path fill="#000000" opacity="1.000000" stroke="none" 
	d="
M207.442749,23.501118 
	C209.470917,33.085243 212.226318,42.176640 212.662140,52.449184 
	C208.642120,49.578644 200.276016,10.365978 201.880295,5.733624 
	C204.934509,7.544267 205.585190,9.598845 207.442749,23.501118 
z"/>
<path fill="#000000" opacity="1.000000" stroke="none" 
	d="
M26.132877,204.630554 
	C35.049187,207.067200 44.138023,207.246765 52.856236,210.636017 
	C50.729240,213.622620 48.740967,212.566223 47.153820,212.271683 
	C34.987904,210.014023 22.851454,207.597366 10.708671,205.215714 
	C9.733860,205.024521 8.771413,204.754898 7.818804,204.469666 
	C6.506835,204.076843 5.074004,203.613800 5.755122,201.808395 
	C6.283950,200.406601 7.544589,200.664581 8.735346,200.924820 
	C14.389776,202.160568 20.050713,203.366516 26.132877,204.630554 
z"/>
<path fill="#000000" opacity="1.000000" stroke="none" 
	d="
M343.911560,22.068111 
	C344.781952,20.853128 345.304565,19.641312 346.817108,20.241035 
	C347.404053,24.449083 332.614471,60.564972 328.878296,63.751469 
	C326.823883,61.898624 328.354431,60.094147 329.023560,58.440590 
	C333.891754,46.410297 338.826141,34.406799 343.911560,22.068111 
z"/>
<path fill="#000000" opacity="1.000000" stroke="none" 
	d="
M463.289551,161.247559 
	C469.648621,159.040359 475.091736,155.287994 481.583862,154.624893 
	C482.513153,157.179047 480.840363,157.747208 479.556030,158.279678 
	C466.812134,163.563095 454.040741,168.780121 441.275299,174.011490 
	C440.301819,174.410431 439.349030,174.484787 437.884949,173.141510 
	C440.979645,169.085709 446.060883,168.789276 450.076538,166.809387 
	C454.239990,164.756607 458.640717,163.185028 463.289551,161.247559 
z"/>
<path fill="#000000" opacity="1.000000" stroke="none" 
	d="
M40.226761,291.233826 
	C44.388973,290.155792 48.121868,288.815247 52.268894,290.110809 
	C49.113777,293.890747 9.300176,301.732574 4.392161,298.732300 
	C16.723557,295.389923 28.290901,293.454010 40.226761,291.233826 
z"/>
<path fill="#000000" opacity="1.000000" stroke="none" 
	d="
M296.291260,14.930475 
	C297.110168,11.502999 296.810455,8.062670 299.514862,5.551371 
	C301.786011,8.985568 294.206207,48.476540 289.648712,53.085773 
	C290.314270,39.351288 294.291626,27.472525 296.291260,14.930475 
z"/>
<path fill="#000000" opacity="1.000000" stroke="none" 
	d="
M59.662712,328.557465 
	C60.813690,328.266693 61.615837,328.023773 62.414860,328.033661 
	C62.796368,328.038422 63.171944,328.523163 65.053482,329.852966 
	C49.572666,336.299103 35.090935,342.329224 20.406483,348.443787 
	C19.284863,344.615570 21.282743,344.270935 22.946539,343.591919 
	C35.073505,338.643097 47.191662,333.672729 59.662712,328.557465 
z"/>
<path fill="#000000" opacity="1.000000" stroke="none" 
	d="
M386.425049,45.430408 
	C387.452332,44.171799 387.965210,42.732609 389.682251,43.138412 
	C390.250427,47.009621 367.905914,80.732277 363.180695,81.977516 
	C369.612091,69.127434 378.337524,57.685741 386.425049,45.430408 
z"/>
<path fill="#000000" opacity="1.000000" stroke="none" 
	d="
M79.621140,109.793655 
	C86.020248,111.360878 89.764305,116.389694 94.243164,120.360786 
	C95.476677,121.454445 94.562714,122.913445 92.733368,122.891495 
	C90.581390,122.865685 79.978615,112.555290 79.621140,109.793655 
z"/>
<path fill="#000000" opacity="1.000000" stroke="none" 
	d="
M388.082642,420.915100 
	C385.000092,416.508026 380.819153,413.291962 378.715363,408.351410 
	C382.912415,407.573425 391.101959,416.780365 391.916168,422.503235 
	C390.094147,423.787018 389.297577,422.201355 388.082642,420.915100 
z"/>
<path fill="#000000" opacity="1.000000" stroke="none" 
	d="
M410.546814,384.506836 
	C409.397461,383.323578 408.177277,382.485046 407.744293,381.346985 
	C407.114288,379.691162 408.372498,378.408630 409.796844,379.357178 
	C414.779572,382.675415 419.547485,386.324280 422.870178,391.595398 
	C417.344543,391.804199 414.878754,386.876343 410.546814,384.506836 
z"/>
<path fill="#000000" opacity="1.000000" stroke="none" 
	d="
M81.549896,392.222473 
	C78.297859,392.229095 78.561287,390.666351 80.114578,389.246552 
	C83.658623,386.007111 87.379517,382.957214 91.100105,379.917877 
	C91.971481,379.205994 93.211723,378.548767 94.173096,379.813629 
	C95.283325,381.274353 94.183029,382.313171 93.149139,383.150238 
	C89.415993,386.172577 85.632881,389.133179 81.549896,392.222473 
z"/>
<path fill="#000000" opacity="1.000000" stroke="none" 
	d="
M62.087219,147.856003 
	C65.309891,149.648880 68.225853,151.245224 71.096321,152.919510 
	C72.005005,153.449539 72.662727,154.338882 72.039581,155.402542 
	C71.775162,155.853897 70.795013,156.376312 70.443832,156.213074 
	C64.929657,153.650024 59.131603,151.503555 54.300385,146.803757 
	C57.766663,144.507782 59.612740,146.969894 62.087219,147.856003 
z"/>
<path fill="#000000" opacity="1.000000" stroke="none" 
	d="
M228.678741,460.918610 
	C228.799805,457.744904 228.543304,454.909637 230.671326,452.567963 
	C233.743790,456.205078 232.728943,468.605042 229.148743,472.108276 
	C225.813629,468.616455 229.168182,464.871887 228.678741,460.918610 
z"/>
<path fill="#000000" opacity="1.000000" stroke="none" 
	d="
M111.783302,84.008728 
	C110.580101,82.437950 109.325417,81.233261 110.304474,79.384506 
	C114.376831,80.189278 122.125984,89.697441 122.586960,95.358841 
	C117.367043,92.620483 115.368820,87.737457 111.783302,84.008728 
z"/>
<path fill="#000000" opacity="1.000000" stroke="none" 
	d="
M440.524170,354.423340 
	C436.864014,351.723297 431.784790,351.516815 429.600250,346.836212 
	C434.192444,345.933594 444.846771,351.514160 447.143463,355.766357 
	C444.627808,357.445312 442.873016,355.184540 440.524170,354.423340 
z"/>
<path fill="#000000" opacity="1.000000" stroke="none" 
	d="
M351.321411,434.766296 
	C353.327759,438.808594 356.040161,442.193604 356.535828,446.824707 
	C352.400604,445.704498 346.312347,435.181000 346.390289,429.910431 
	C349.989044,429.348999 349.786896,432.768768 351.321411,434.766296 
z"/>
<path fill="#000000" opacity="1.000000" stroke="none" 
	d="
M312.039124,446.212585 
	C313.531891,452.142273 316.589783,457.412170 316.176147,463.897644 
	C312.821838,462.908844 312.803497,460.496857 312.165039,458.596893 
	C311.000885,455.132477 309.853088,451.651642 308.955170,448.112488 
	C308.323334,445.622101 308.610260,443.672516 312.039124,446.212585 
z"/>
<path fill="#000000" opacity="1.000000" stroke="none" 
	d="
M48.273941,187.676300 
	C51.503105,188.820572 54.862206,188.800613 57.020073,191.547562 
	C53.725891,193.618469 41.869129,190.515457 38.170536,186.575302 
	C41.808708,184.113739 44.727642,187.305939 48.273941,187.676300 
z"/>
<path fill="#000000" opacity="1.000000" stroke="none" 
	d="
M117.972351,415.967987 
	C115.485062,418.467010 114.382156,421.908783 110.911972,423.074921 
	C109.947441,418.813019 118.049477,408.478027 122.679047,408.005127 
	C123.095795,411.732147 119.711494,413.198059 117.972351,415.967987 
z"/>
<path fill="#000000" opacity="1.000000" stroke="none" 
	d="
M379.673340,91.646851 
	C383.576355,87.150444 386.422211,82.085808 390.965912,78.691864 
	C392.752167,80.401154 392.237000,81.464989 391.488281,82.400673 
	C388.587738,86.025635 385.748474,89.709885 382.659485,93.169495 
	C381.080536,94.937881 379.212555,95.792839 379.673340,91.646851 
z"/>
<path fill="#000000" opacity="1.000000" stroke="none" 
	d="
M188.170883,39.009865 
	C190.265488,45.001923 192.973221,50.532806 193.318909,57.598591 
	C188.881683,55.475594 189.107361,52.078800 188.047287,49.503933 
	C187.045944,47.071709 186.421814,44.451820 185.922333,41.858509 
	C185.657700,40.484612 185.002045,38.334675 188.170883,39.009865 
z"/>
<path fill="#000000" opacity="1.000000" stroke="none" 
	d="
M147.901611,61.941162 
	C147.068115,59.561420 144.769211,57.810085 146.960861,54.646378 
	C151.770294,59.575287 154.006622,65.489136 156.705032,71.727287 
	C153.104141,71.282425 153.104141,71.282425 147.901611,61.941162 
z"/>
<path fill="#000000" opacity="1.000000" stroke="none" 
	d="
M190.825912,445.412598 
	C193.178421,444.554749 193.504028,446.071747 193.161545,447.358978 
	C191.731079,452.735352 190.643692,458.239960 187.995132,463.215881 
	C187.828705,463.528595 187.157501,463.572632 185.915314,464.053772 
	C186.026566,457.226196 188.325668,451.448883 190.825912,445.412598 
z"/>
<path fill="#000000" opacity="1.000000" stroke="none" 
	d="
M55.513260,356.052124 
	C54.664036,354.714813 55.195656,353.838959 56.100349,353.343231 
	C60.580643,350.888123 65.092804,348.489777 69.628723,346.138977 
	C70.380020,345.749573 71.247879,345.912170 72.523979,347.710663 
	C67.335762,351.303864 62.271641,354.969147 55.513260,356.052124 
z"/>
<path fill="#000000" opacity="1.000000" stroke="none" 
	d="
M447.001648,312.316467 
	C444.420227,310.718933 444.300781,309.371582 447.112610,308.738312 
	C449.170776,308.274780 461.933289,313.604584 464.153687,315.979828 
	C457.700958,316.844116 452.729370,313.526703 447.001648,312.316467 
z"/>
<path fill="#000000" opacity="1.000000" stroke="none" 
	d="
M434.960022,150.856567 
	C439.006256,148.877014 442.322418,146.031540 446.977783,145.533936 
	C445.594513,149.984482 434.149292,156.227417 429.859100,155.278366 
	C429.993408,152.202271 432.866608,152.220703 434.960022,150.856567 
z"/>
<path fill="#000000" opacity="1.000000" stroke="none" 
	d="
M47.193962,311.158630 
	C49.909794,310.264130 52.248970,309.458160 54.626671,308.789093 
	C55.602543,308.514496 56.724705,308.614929 57.046043,309.821655 
	C57.179909,310.324371 56.896423,311.116486 56.530087,311.542664 
	C55.102448,313.203430 40.726528,316.227844 38.244530,315.322693 
	C40.348293,312.156433 43.866627,312.287628 47.193962,311.158630 
z"/>
<path fill="#000000" opacity="1.000000" stroke="none" 
	d="
M272.157715,453.562225 
	C273.281799,459.862885 274.762207,465.836395 273.946716,471.761292 
	C271.894989,472.047485 271.073364,471.428802 271.013428,470.666351 
	C270.598053,465.384125 269.366852,460.160980 269.767914,454.820923 
	C269.864532,453.534668 270.227661,452.414032 272.157715,453.562225 
z"/>
<path fill="#000000" opacity="1.000000" stroke="none" 
	d="
M313.584290,50.510929 
	C312.910889,53.193275 312.861450,55.797775 310.087311,56.996143 
	C308.611267,53.084732 311.769379,42.020496 315.694458,37.939449 
	C317.611389,42.739521 314.149658,46.243565 313.584290,50.510929 
z"/>
<path fill="#000000" opacity="1.000000" stroke="none" 
	d="
M466.946228,270.699036 
	C469.033173,270.798370 470.771484,270.657593 471.810089,272.371857 
	C469.277649,275.242767 457.109436,274.397491 452.970947,270.834991 
	C457.595001,268.131042 462.096527,270.891388 466.946228,270.699036 
z"/>
<path fill="#000000" opacity="1.000000" stroke="none" 
	d="
M409.152893,118.975998 
	C413.605011,115.582809 417.235291,111.551582 422.554108,109.990021 
	C419.638153,116.213829 414.028625,119.352394 409.149811,123.178528 
	C406.702911,121.444336 407.874512,120.330612 409.152893,118.975998 
z"/>
<path fill="#000000" opacity="1.000000" stroke="none" 
	d="
M152.075485,440.000488 
	C150.272614,442.604919 149.787079,445.859711 146.510773,447.165985 
	C145.943375,442.046753 151.572266,431.752869 155.711716,430.143646 
	C156.267822,434.030609 153.329010,436.537140 152.075485,440.000488 
z"/>
<path fill="#000000" opacity="1.000000" stroke="none" 
	d="
M353.007568,63.974800 
	C350.724518,66.751144 350.644379,70.848686 346.765747,72.131104 
	C346.248596,67.733170 351.735718,57.448223 355.772217,55.188515 
	C357.202484,58.785950 353.967102,60.870441 353.007568,63.974800 
z"/>
<path fill="#000000" opacity="1.000000" stroke="none" 
	d="
M270.760254,32.437035 
	C271.687225,30.211191 272.708130,28.926491 274.216309,31.451174 
	C275.242920,33.169731 272.562988,46.891602 270.691101,48.970531 
	C268.145599,43.430264 271.179382,38.107048 270.760254,32.437035 
z"/>
<path fill="#000000" opacity="1.000000" stroke="none" 
	d="
M452.323242,188.092438 
	C456.225250,187.730423 459.376831,185.181946 463.276306,186.034470 
	C461.259308,189.831482 449.558472,193.589706 445.007172,191.956909 
	C446.365601,188.802795 449.693695,189.439224 452.323242,188.092438 
z"/>
<path fill="#000000" opacity="1.000000" stroke="none" 
	d="
M36.241714,274.121643 
	C33.810070,274.311218 31.629618,275.068573 28.858858,271.954559 
	C36.080303,270.368011 42.170238,269.248810 48.644356,270.814972 
	C45.392052,274.664185 40.459179,272.370056 36.241714,274.121643 
z"/>
<path fill="#000000" opacity="1.000000" stroke="none" 
	d="
M30.312820,229.042786 
	C36.809578,226.898712 42.752789,228.863800 48.817730,229.889282 
	C48.507107,232.428497 47.139645,232.418945 46.090263,232.304459 
	C40.729980,231.719711 35.042255,232.876175 30.312820,229.042786 
z"/>
<path fill="#000000" opacity="1.000000" stroke="none" 
	d="
M455.856934,229.263885 
	C461.422943,229.360016 466.636047,226.430847 471.820251,229.477066 
	C465.787140,231.733429 459.675690,232.892105 453.342255,232.050629 
	C453.006744,229.681519 454.495636,229.810150 455.856934,229.263885 
z"/>
<path fill="#000000" opacity="1.000000" stroke="none" 
	d="
M227.807587,32.320515 
	C228.571762,29.965586 230.426971,29.330429 230.748322,31.390430 
	C231.636993,37.087276 233.322647,42.866859 231.159683,48.805801 
	C227.461777,44.004097 229.221710,38.008808 227.807587,32.320515 
z"/>
</svg>