<svg version="1.1" id="Layer_1" xmlns="http://www.w3.org/2000/svg" xmlns:xlink="http://www.w3.org/1999/xlink" x="0px" y="0px"
	 width="100%" viewBox="0 0 496 496" enable-background="new 0 0 496 496" xml:space="preserve">
<path fill="white" opacity="1.000000" stroke="none" 
	d="
M220.498199,357.964844 
	C212.922348,354.531372 209.735535,348.653534 209.735199,341.027008 
	C209.733124,293.697693 209.779846,246.368286 209.902283,199.039154 
	C209.922760,191.123993 212.268341,184.219269 220.014755,180.390213 
	C222.503113,179.160202 222.689819,177.205048 221.840454,174.932083 
	C220.657242,171.765656 221.677109,167.581848 216.659500,166.334030 
	C205.042267,163.444977 198.656830,153.726730 201.131470,143.407227 
	C202.994324,135.638840 208.991989,129.923508 216.461853,128.798462 
	C224.648041,127.565529 232.355743,131.006927 236.201935,137.612137 
	C240.211197,144.497421 239.612473,153.220703 234.688446,159.663651 
	C231.446655,163.905441 231.333740,172.684982 234.343918,177.049927 
	C235.770432,179.118469 237.835159,178.705719 239.764648,178.719849 
	C252.929855,178.816330 266.095642,178.833664 279.260956,178.918976 
	C295.269043,179.022690 301.318268,185.086548 301.307983,201.058151 
	C301.278870,246.221222 301.239441,291.384308 301.145721,336.547302 
	C301.139191,339.692993 300.854431,342.870148 300.352173,345.976562 
	C299.070679,353.902588 292.734924,359.318634 284.701660,359.344147 
	C265.869934,359.403931 247.037872,359.352661 228.206009,359.384125 
	C225.668549,359.388367 223.230759,359.023956 220.498199,357.964844 
M245.500977,348.670288 
	C257.498810,348.652649 269.496826,348.664093 281.494446,348.604797 
	C287.312225,348.576080 289.649017,346.258911 289.676666,340.416260 
	C289.734222,328.252014 289.714478,316.087280 289.680817,303.922852 
	C289.676392,302.318481 290.065247,300.538086 288.528229,299.329529 
	C278.988953,302.293060 269.100189,301.359375 259.410187,302.318848 
	C254.824753,302.772919 252.853653,300.372253 252.604889,295.802307 
	C252.234573,288.998596 251.444794,282.217316 250.809952,275.428711 
	C250.670258,273.934937 250.581024,271.845215 248.869476,271.760864 
	C241.596695,271.402710 238.473419,265.133118 233.532684,261.471436 
	C229.879410,258.763916 227.284332,254.721924 223.013458,252.630829 
	C221.444443,254.844910 221.410461,257.057404 221.402924,259.165527 
	C221.306351,286.160400 221.242035,313.155518 221.258865,340.150513 
	C221.262360,345.750397 223.828171,348.362030 229.506699,348.604675 
	C234.496948,348.817902 239.502945,348.662689 245.500977,348.670288 
M289.547607,270.043793 
	C289.615540,261.883667 289.565277,253.720078 289.804901,245.565018 
	C289.913025,241.885635 288.353363,240.342819 284.853271,240.356812 
	C280.023621,240.376114 275.193329,240.433426 270.364380,240.380554 
	C266.845459,240.342041 264.636810,238.674408 264.595123,234.957809 
	C264.552917,231.197266 266.672424,229.597031 270.295563,229.625183 
	C275.292297,229.664017 280.292084,229.553299 285.285522,229.689713 
	C288.476501,229.776901 289.811340,228.473495 289.785797,225.273682 
	C289.711365,215.946884 289.797363,206.618958 289.775787,197.291550 
	C289.765533,192.867737 287.528900,190.386719 283.057617,190.363007 
	C269.732727,190.292358 256.407227,190.333130 243.082031,190.301987 
	C239.010559,190.292480 237.778549,191.926727 239.040817,195.964706 
	C240.424438,200.390961 241.444946,204.954758 242.275375,209.521957 
	C242.892776,212.917465 241.413040,215.512527 237.813889,216.137405 
	C234.397934,216.730499 232.549454,214.711685 231.693497,211.625748 
	C230.893631,208.741974 230.278625,205.801147 229.357880,202.958084 
	C228.113098,199.114548 227.885147,194.815826 224.901077,191.647003 
	C222.282928,192.651123 221.368210,194.470566 221.365601,196.820099 
	C221.355988,205.481049 221.350388,214.142273 221.413254,222.802887 
	C221.429779,225.077454 222.008667,227.079117 224.685455,227.739349 
	C227.806458,228.509155 229.409592,230.449753 229.480713,233.822754 
	C229.553207,237.260666 227.473633,238.432266 224.705536,239.224533 
	C221.453339,240.155380 221.204895,242.203186 222.484924,244.910721 
	C224.880432,244.759506 225.763901,242.976990 226.971436,241.692688 
	C231.304657,237.084076 235.552292,232.394745 239.902557,227.802490 
	C242.350708,225.218124 245.280182,223.201843 248.604202,226.022430 
	C254.820099,231.296921 260.863464,236.784882 266.802704,242.371078 
	C269.971100,245.351120 270.052643,248.711807 266.965149,252.031525 
	C264.357971,254.834763 261.801208,257.691833 259.357941,260.637695 
	C258.172272,262.067261 256.438416,263.299774 256.479492,265.645020 
	C264.199646,266.220642 271.614105,264.970032 279.065338,264.737915 
	C285.310516,264.543396 287.700317,267.188843 287.569672,273.559235 
	C287.517487,276.103821 286.893951,278.704559 288.717163,281.131622 
	C288.950714,277.740265 289.184265,274.348907 289.547607,270.043793 
M221.750168,155.233490 
	C222.763245,154.678497 223.898056,154.269302 224.768066,153.542938 
	C228.276093,150.614029 228.681396,145.905365 225.821976,142.490189 
	C222.908020,139.009872 218.360992,138.560562 214.796890,141.496689 
	C212.221176,143.618591 211.498474,146.431351 212.439957,149.560394 
	C213.706848,153.770935 216.678833,155.686493 221.750168,155.233490 
M276.689209,285.256378 
	C276.059082,281.951508 278.655701,277.245728 272.413727,276.464203 
	C264.632874,275.490021 262.276855,278.037231 263.071106,286.000732 
	C263.477997,290.080444 265.342499,291.152252 268.845947,290.672180 
	C272.054932,290.232422 276.820129,292.348755 276.689209,285.256378 
M241.948792,253.512619 
	C243.508194,254.669724 244.579895,256.495789 246.585022,256.989777 
	C248.236328,256.485596 248.832489,254.994614 249.790527,253.902710 
	C255.289963,247.634781 254.836426,244.876678 247.686691,240.493393 
	C246.823761,239.964386 246.084488,239.483292 244.964920,239.888992 
	C239.000137,242.050430 237.190842,248.751740 241.948792,253.512619 
z"/>
<path fill="#000000" opacity="1.000000" stroke="none" 
	d="
M327.061768,363.183350 
	C333.474701,371.478943 339.044189,379.994781 344.600677,388.990479 
	C341.522278,389.837158 340.937378,388.402496 340.253296,387.387207 
	C335.723785,380.664307 331.226288,373.919128 326.799194,367.128510 
	C326.005493,365.911041 324.256165,364.459076 327.061768,363.183350 
z"/>
<path fill="#000000" opacity="1.000000" stroke="none" 
	d="
M173.438339,369.493652 
	C168.719971,376.564880 164.198151,383.339783 159.676315,390.114685 
	C159.037689,389.681946 158.399048,389.249237 157.760406,388.816498 
	C162.640076,379.622620 168.726044,371.200897 175.239960,361.883636 
	C176.995270,365.928986 174.509506,367.297363 173.438339,369.493652 
z"/>
<path fill="#000000" opacity="1.000000" stroke="none" 
	d="
M197.525085,383.490356 
	C194.409592,390.939301 191.442017,398.034454 188.186050,405.819122 
	C186.306229,401.228149 195.512192,378.216125 199.601074,375.727081 
	C200.582352,378.711670 198.260315,380.723358 197.525085,383.490356 
z"/>
<path fill="#000000" opacity="1.000000" stroke="none" 
	d="
M313.814697,404.625244 
	C308.849609,395.348633 305.183044,385.821106 302.113190,376.069855 
	C309.064972,384.355652 312.451935,394.139771 314.935699,404.304596 
	C314.954224,404.380341 314.414948,404.592407 313.814697,404.625244 
z"/>
<path fill="#000000" opacity="1.000000" stroke="none" 
	d="
M135.084290,171.865173 
	C136.560394,173.090759 138.448868,173.500244 138.471313,176.992554 
	C128.734421,171.448196 120.364494,165.286407 112.347351,158.532898 
	C120.781082,161.316116 127.595757,166.820190 135.084290,171.865173 
z"/>
<path fill="#000000" opacity="1.000000" stroke="none" 
	d="
M120.989006,335.959534 
	C127.063133,332.592621 131.792145,327.527374 138.235229,325.572571 
	C138.586746,326.142029 138.938278,326.711456 139.289795,327.280884 
	C130.597534,333.019623 121.905258,338.758362 113.212982,344.497101 
	C112.894569,344.041748 112.576157,343.586365 112.257736,343.131012 
	C113.781097,339.344818 118.130447,338.769043 120.989006,335.959534 
z"/>
<path fill="#000000" opacity="1.000000" stroke="none" 
	d="
M386.713745,343.206238 
	C378.497711,337.781738 370.586182,332.515045 362.696716,327.263062 
	C364.125061,324.992157 365.294128,325.589020 366.217621,326.202026 
	C373.404266,330.972870 380.560181,335.790527 387.692352,340.642517 
	C388.587952,341.251801 389.916718,341.944275 389.207306,343.348511 
	C388.707672,344.337463 387.762939,343.634369 386.713745,343.206238 
z"/>
<path fill="#000000" opacity="1.000000" stroke="none" 
	d="
M249.689392,414.227875 
	C249.682205,404.646088 249.682205,395.480957 249.682205,386.315796 
	C250.386215,386.329132 251.090225,386.342468 251.794250,386.355804 
	C254.109436,396.505432 252.031281,406.725311 252.275757,416.867035 
	C249.523911,417.150665 249.878174,415.696198 249.689392,414.227875 
z"/>
<path fill="#000000" opacity="1.000000" stroke="none" 
	d="
M189.763901,99.453239 
	C192.974228,108.400337 197.631439,116.433357 198.906876,125.731430 
	C193.739975,116.767731 189.497040,107.427483 186.228638,97.471146 
	C188.704865,96.893776 189.045074,98.157219 189.763901,99.453239 
z"/>
<path fill="#000000" opacity="1.000000" stroke="none" 
	d="
M122.698898,199.227905 
	C113.791992,195.570297 105.232658,192.030701 96.673332,188.491104 
	C97.037216,187.639008 97.401100,186.786926 97.764992,185.934830 
	C107.240997,189.872406 116.717010,193.809967 126.163605,197.735306 
	C125.298279,200.416519 124.090538,199.558319 122.698898,199.227905 
z"/>
<path fill="#000000" opacity="1.000000" stroke="none" 
	d="
M379.422607,199.282166 
	C378.016998,199.762405 376.930695,200.375046 375.929413,199.245041 
	C378.132721,196.191483 400.058868,186.927887 406.142303,187.166534 
	C397.047272,192.650696 388.133636,195.349197 379.422607,199.282166 
z"/>
<path fill="#000000" opacity="1.000000" stroke="none" 
	d="
M160.654968,113.385132 
	C166.161148,121.805817 171.976288,129.637558 177.212646,138.618546 
	C173.974396,138.889435 173.492477,137.439072 172.795944,136.411636 
	C168.143295,129.548737 163.532883,122.657066 158.943634,115.751564 
	C158.331451,114.830414 157.349609,113.783585 158.358109,112.639732 
	C159.104630,111.793045 159.814545,112.571548 160.654968,113.385132 
z"/>
<path fill="#000000" opacity="1.000000" stroke="none" 
	d="
M333.272369,125.314644 
	C336.567444,120.705299 339.009918,115.877266 342.608368,111.968773 
	C343.262085,112.432404 343.915802,112.896034 344.569489,113.359673 
	C338.832611,121.929489 333.095703,130.499313 327.358826,139.069122 
	C326.731689,138.705353 326.104553,138.341568 325.477417,137.977798 
	C326.837006,133.255753 330.705505,129.820221 333.272369,125.314644 
z"/>
<path fill="#000000" opacity="1.000000" stroke="none" 
	d="
M375.461548,169.497040 
	C371.395905,171.829605 368.278473,175.189102 363.416626,176.354736 
	C365.335815,172.061020 384.598877,159.021332 389.925629,159.428818 
	C385.204407,162.718033 380.483215,166.007263 375.461548,169.497040 
z"/>
<path fill="#000000" opacity="1.000000" stroke="none" 
	d="
M387.296326,308.774902 
	C383.285797,306.673309 378.726501,306.436737 375.478699,302.938599 
	C379.544861,301.969177 401.317017,310.775299 405.596313,315.610229 
	C398.386292,314.123199 393.203186,310.949005 387.296326,308.774902 
z"/>
<path fill="#000000" opacity="1.000000" stroke="none" 
	d="
M122.523140,302.568848 
	C123.931686,302.019867 125.008804,301.485107 127.140915,303.517395 
	C116.929932,307.832642 107.330048,311.889618 97.730156,315.946625 
	C97.408180,315.228851 97.086205,314.511078 96.764221,313.793304 
	C104.914932,309.426483 113.694527,306.364868 122.523140,302.568848 
z"/>
<path fill="#000000" opacity="1.000000" stroke="none" 
	d="
M281.098145,409.434692 
	C279.906250,400.564362 276.856323,392.366974 277.342896,383.618683 
	C281.380981,393.402924 282.644196,403.738464 284.553192,414.457489 
	C280.907654,413.671600 282.125458,411.190277 281.098145,409.434692 
z"/>
<path fill="#000000" opacity="1.000000" stroke="none" 
	d="
M311.606628,100.735504 
	C312.535309,99.235916 312.693054,97.489067 316.099609,97.128601 
	C311.849121,107.338013 307.915222,116.786942 303.981323,126.235878 
	C303.328461,125.981743 302.675598,125.727608 302.022705,125.473473 
	C304.239929,117.018578 308.502930,109.281647 311.606628,100.735504 
z"/>
<path fill="#000000" opacity="1.000000" stroke="none" 
	d="
M222.602951,101.473297 
	C223.193756,107.262024 225.846085,112.444138 224.419449,118.125793 
	C220.849457,108.357628 219.007263,98.271896 218.222839,87.946144 
	C221.711227,91.723801 221.064896,96.749184 222.602951,101.473297 
z"/>
<path fill="#000000" opacity="1.000000" stroke="none" 
	d="
M92.680145,283.819580 
	C90.735603,284.121948 89.087471,285.013153 87.125748,282.540253 
	C97.546555,279.553101 107.759155,278.161133 118.079926,277.033783 
	C114.771973,280.323517 110.233467,280.013702 106.236664,281.105652 
	C101.935280,282.280762 97.471687,282.862183 92.680145,283.819580 
z"/>
<path fill="#000000" opacity="1.000000" stroke="none" 
	d="
M411.613556,284.269989 
	C402.077576,281.954651 392.570038,281.135651 383.770844,277.286713 
	C394.108459,277.835541 404.156006,279.894135 414.022339,282.082703 
	C414.108002,284.381073 412.961914,284.204987 411.613556,284.269989 
z"/>
<path fill="#000000" opacity="1.000000" stroke="none" 
	d="
M346.290588,347.781799 
	C346.607635,345.538239 347.878235,345.989227 348.721008,346.835724 
	C355.391968,353.536255 361.989471,360.310059 368.571198,367.098572 
	C368.817505,367.352570 368.670319,367.988068 368.706512,368.445801 
	C368.327698,368.813965 367.948914,369.182129 367.570099,369.550293 
	C360.515015,362.403809 353.459930,355.257324 346.290588,347.781799 
z"/>
<path fill="#000000" opacity="1.000000" stroke="none" 
	d="
M225.186310,384.797241 
	C224.104874,396.852753 220.695312,411.404358 218.530136,413.949036 
	C217.301666,413.140930 217.586700,411.867157 217.788345,410.818146 
	C219.382294,402.525757 221.038300,394.244904 222.749619,385.975952 
	C222.974121,384.891174 222.994019,382.931030 225.186310,384.797241 
z"/>
<path fill="#000000" opacity="1.000000" stroke="none" 
	d="
M146.017273,147.983368 
	C141.335861,143.222397 136.903549,138.712280 132.471237,134.202148 
	C136.863525,134.088440 154.025192,151.148209 155.351257,155.722443 
	C151.043152,154.422424 149.296204,150.509644 146.017273,147.983368 
z"/>
<path fill="#000000" opacity="1.000000" stroke="none" 
	d="
M145.974304,357.975037 
	C141.771530,361.821869 138.475998,366.178284 133.294418,368.459229 
	C139.582672,360.142517 146.934021,352.885803 155.205704,346.418915 
	C153.562546,351.268219 149.432297,354.140533 145.974304,357.975037 
z"/>
<path fill="#000000" opacity="1.000000" stroke="none" 
	d="
M104.455933,220.455292 
	C109.344330,221.578339 114.108925,221.664246 118.256737,223.800690 
	C118.118233,224.389099 117.979729,224.977509 117.841225,225.565918 
	C107.798820,223.644073 97.756416,221.722214 87.714020,219.800369 
	C87.810936,219.198441 87.907852,218.596527 88.004768,217.994598 
	C93.502831,217.361374 98.688622,219.659317 104.455933,220.455292 
z"/>
<path fill="#000000" opacity="1.000000" stroke="none" 
	d="
M368.754883,134.032745 
	C362.172821,142.175369 354.702362,149.058640 347.426270,156.243164 
	C345.597687,154.184601 346.737396,153.344940 347.483612,152.589737 
	C353.440521,146.560913 359.421875,140.555756 365.451263,134.599594 
	C366.293427,133.767654 367.185303,132.303162 368.754883,134.032745 
z"/>
<path fill="#000000" opacity="1.000000" stroke="none" 
	d="
M280.324219,110.037338 
	C279.020508,112.887360 279.899139,116.058159 277.281311,118.104744 
	C277.405701,107.708847 280.364502,97.844711 282.335602,86.789780 
	C284.207031,90.085037 284.207825,90.085190 282.588593,98.373314 
	C281.855804,102.124306 281.119141,105.874535 280.324219,110.037338 
z"/>
<path fill="#000000" opacity="1.000000" stroke="none" 
	d="
M390.955017,221.706009 
	C398.842102,220.328262 406.200073,218.129608 413.818237,217.885651 
	C413.926392,218.508606 414.034515,219.131577 414.142670,219.754532 
	C404.176727,221.698837 394.210785,223.643127 383.201599,225.790955 
	C385.275818,221.671371 388.422302,222.826447 390.955017,221.706009 
z"/>
<path fill="#000000" opacity="1.000000" stroke="none" 
	d="
M101.990486,252.335968 
	C95.959808,252.333939 90.425758,252.333939 83.782936,252.333939 
	C87.318695,249.322998 109.631691,248.764862 115.437004,251.172714 
	C111.312973,252.981400 106.815422,252.035675 101.990486,252.335968 
z"/>
<path fill="#000000" opacity="1.000000" stroke="none" 
	d="
M249.687073,102.983452 
	C249.686600,96.654732 249.686600,90.823090 249.686600,84.991447 
	C250.495255,85.004845 251.303925,85.018242 252.112579,85.031639 
	C252.564941,95.086052 252.384964,105.145355 251.446198,115.232071 
	C248.766220,111.499481 250.096115,107.394211 249.687073,102.983452 
z"/>
<path fill="#000000" opacity="1.000000" stroke="none" 
	d="
M413.497131,249.678131 
	C414.997009,249.871353 416.327423,249.354553 416.934204,250.794495 
	C414.146393,252.674683 391.739532,253.056442 386.589294,250.583115 
	C395.359344,249.405579 404.227386,249.801163 413.497131,249.678131 
z"/>
<path fill="#000000" opacity="1.000000" stroke="none" 
	d="
M209.787109,391.137390 
	C208.023117,392.999359 206.863678,392.127045 207.286438,390.472015 
	C208.201050,386.891541 208.679352,383.064453 211.608078,379.075745 
	C213.413773,383.955566 210.325607,387.239899 209.787109,391.137390 
z"/>
<path fill="#000000" opacity="1.000000" stroke="none" 
	d="
M184.730286,130.121506 
	C183.427475,126.847641 180.663773,124.508362 181.063980,119.718864 
	C185.149460,123.338936 186.695953,127.148323 187.893036,131.193451 
	C186.021820,132.184204 185.569122,131.098328 184.730286,130.121506 
z"/>
<path fill="#000000" opacity="1.000000" stroke="none" 
	d="
M142.070663,342.004517 
	C140.110107,343.196045 139.175873,345.714111 135.742111,344.814941 
	C138.602905,340.703491 142.066010,338.241119 146.386566,335.461304 
	C146.768631,339.592987 143.802963,340.152985 142.070663,342.004517 
z"/>
<path fill="#000000" opacity="1.000000" stroke="none" 
	d="
M360.840607,158.821869 
	C362.291962,157.880661 363.212585,156.387726 365.645081,157.614212 
	C362.993164,161.307297 359.804108,163.863815 355.267426,166.153061 
	C355.373871,161.739868 358.891815,161.106781 360.840607,158.821869 
z"/>
<path fill="#000000" opacity="1.000000" stroke="none" 
	d="
M342.977417,140.901733 
	C340.930634,143.112579 339.810394,145.848801 336.555573,146.271149 
	C338.044098,142.169464 340.578033,138.920059 343.979736,136.080017 
	C345.973816,138.440872 343.848907,139.340057 342.977417,140.901733 
z"/>
<path fill="#000000" opacity="1.000000" stroke="none" 
	d="
M290.499695,386.353760 
	C290.018616,384.127869 288.930420,382.304291 290.509033,379.541473 
	C293.025879,383.798309 294.445953,387.684326 294.492432,392.902557 
	C291.189789,391.277191 291.551331,388.614716 290.499695,386.353760 
z"/>
<path fill="#000000" opacity="1.000000" stroke="none" 
	d="
M314.391205,372.591034 
	C313.958191,370.486969 314.832123,369.267242 316.156952,370.815704 
	C318.608521,373.681030 320.685425,376.957916 321.337677,381.870941 
	C317.032745,379.506714 316.298187,375.830048 314.391205,372.591034 
z"/>
<path fill="#000000" opacity="1.000000" stroke="none" 
	d="
M141.603821,159.285355 
	C143.324951,160.839493 144.800797,162.137619 146.202759,163.511169 
	C146.496628,163.799088 146.518417,164.364746 146.972626,165.715637 
	C141.826385,164.298019 139.337326,160.802307 135.682037,157.912216 
	C138.897720,156.195312 139.880310,158.296112 141.603821,159.285355 
z"/>
<path fill="#000000" opacity="1.000000" stroke="none" 
	d="
M128.090790,318.129089 
	C125.387115,319.092590 123.551628,321.401978 120.565208,321.128662 
	C122.234558,317.402710 127.748886,314.308807 131.665817,314.738037 
	C131.636749,316.889893 129.656372,317.064392 128.090790,318.129089 
z"/>
<path fill="#000000" opacity="1.000000" stroke="none" 
	d="
M184.021683,373.090851 
	C185.058746,371.764130 185.113144,369.735718 187.883133,370.486755 
	C186.635071,374.667206 185.084747,378.444611 181.108185,382.162811 
	C180.554947,377.936554 182.824600,375.878510 184.021683,373.090851 
z"/>
<path fill="#000000" opacity="1.000000" stroke="none" 
	d="
M320.169586,120.574425 
	C321.152527,125.628098 317.721344,128.483032 314.680511,131.568741 
	C315.077911,127.261131 316.917694,123.661530 320.169586,120.574425 
z"/>
<path fill="#000000" opacity="1.000000" stroke="none" 
	d="
M338.434052,355.620911 
	C341.022247,358.674469 344.198578,360.955688 345.270172,366.149017 
	C340.636261,363.492615 338.441772,360.076935 336.404327,356.660339 
	C335.771973,355.599945 336.916229,354.967316 338.434052,355.620911 
z"/>
<path fill="#000000" opacity="1.000000" stroke="none" 
	d="
M159.727371,359.819885 
	C161.542511,358.005920 162.324203,355.613922 165.704529,354.493774 
	C164.414886,359.861053 161.234924,362.705597 157.374741,365.946930 
	C156.544327,362.747101 158.555328,361.644623 159.727371,359.819885 
z"/>
<path fill="#000000" opacity="1.000000" stroke="none" 
	d="
M380.793335,289.951843 
	C385.232208,289.714661 388.862946,291.190643 392.175262,293.656830 
	C387.905304,293.750153 383.559570,294.154236 380.793335,289.951843 
z"/>
<path fill="#000000" opacity="1.000000" stroke="none" 
	d="
M391.381561,263.602966 
	C395.584473,263.757996 395.584473,263.757996 399.094727,265.994446 
	C393.833374,266.468536 389.690826,266.908508 385.365326,264.672913 
	C386.966248,261.693390 389.151520,263.577057 391.381561,263.602966 
z"/>
<path fill="#000000" opacity="1.000000" stroke="none" 
	d="
M388.109192,238.568207 
	C386.919708,238.664459 386.060547,238.834381 385.465912,237.423370 
	C389.331299,234.613953 393.690308,235.957993 398.163086,235.640045 
	C396.341522,238.073380 396.341522,238.073380 388.109192,238.568207 
z"/>
<path fill="#000000" opacity="1.000000" stroke="none" 
	d="
M380.318756,211.600952 
	C383.738831,208.515030 387.799194,207.861374 392.112885,208.081116 
	C388.539215,210.422943 384.981873,212.741440 380.318756,211.600952 
z"/>
<path fill="#000000" opacity="1.000000" stroke="none" 
	d="
M120.707748,182.494232 
	C120.498680,181.399643 120.953300,180.741135 121.627083,180.920349 
	C125.525345,181.957275 129.121750,183.557587 131.541321,187.193039 
	C127.429596,187.085754 124.174492,184.880341 120.707748,182.494232 
z"/>
<path fill="#000000" opacity="1.000000" stroke="none" 
	d="
M159.873505,142.074524 
	C158.545380,140.409576 157.151016,139.181061 156.914337,137.183624 
	C160.569427,137.626572 164.127579,141.632019 165.202835,146.561218 
	C162.366837,146.355515 161.703049,143.744659 159.873505,142.074524 
z"/>
<path fill="#000000" opacity="1.000000" stroke="none" 
	d="
M364.389313,344.968994 
	C360.607758,342.913788 357.312469,340.629486 354.923706,336.891937 
	C359.388794,336.971588 364.094147,341.007477 364.389313,344.968994 
z"/>
<path fill="#000000" opacity="1.000000" stroke="none" 
	d="
M118.353737,292.701416 
	C115.197006,293.105469 112.640091,295.382782 109.428749,294.057709 
	C111.992760,291.262878 116.006363,289.930908 120.995445,290.136414 
	C121.269966,291.939331 119.857147,292.145935 118.353737,292.701416 
z"/>
<path fill="#000000" opacity="1.000000" stroke="none" 
	d="
M116.664978,211.476410 
	C114.002014,210.440994 111.162697,210.642075 108.510674,207.359009 
	C114.017578,207.402634 117.812630,208.842224 122.053001,210.883667 
	C120.022179,212.864151 118.517357,211.991379 116.664978,211.476410 
z"/>
<path fill="#000000" opacity="1.000000" stroke="none" 
	d="
M373.856445,183.766968 
	C376.328552,182.585815 378.211578,180.839951 381.002686,180.885300 
	C379.424927,184.618423 374.456177,187.408844 370.257904,187.135101 
	C370.307770,184.991226 372.274597,184.807220 373.856445,183.766968 
z"/>
<path fill="#000000" opacity="1.000000" stroke="none" 
	d="
M289.959106,117.679031 
	C291.195618,114.794579 291.022858,111.629723 294.288757,108.513435 
	C294.567719,114.092484 292.771454,117.706459 291.169800,121.469383 
	C288.851898,120.619362 289.815094,119.190758 289.959106,117.679031 
z"/>
<path fill="#000000" opacity="1.000000" stroke="none" 
	d="
M210.896881,121.136246 
	C208.966263,117.395325 207.289948,113.819420 208.196060,109.651985 
	C210.209320,113.270737 213.268265,116.599716 210.896881,121.136246 
z"/>
<path fill="#000000" opacity="1.000000" stroke="none" 
	d="
M265.971497,397.740417 
	C263.321381,398.066498 263.865417,396.157135 263.732758,394.839478 
	C263.454895,392.079803 263.309235,389.306061 263.164093,386.535217 
	C263.152832,386.320038 263.570496,386.082397 264.390930,385.228607 
	C266.599487,389.336060 266.509033,393.393036 265.971497,397.740417 
z"/>
<path fill="#000000" opacity="1.000000" stroke="none" 
	d="
M371.216370,314.119690 
	C375.095184,315.611725 378.779144,316.907623 381.512970,320.281311 
	C376.574097,320.612823 371.235870,317.406952 371.216370,314.119690 
z"/>
<path fill="#000000" opacity="1.000000" stroke="none" 
	d="
M113.727219,262.992126 
	C115.162155,262.902924 116.103111,263.035583 116.321754,264.733948 
	C112.565628,266.961761 108.577141,266.520691 103.773102,265.837952 
	C106.846703,262.354492 110.576744,264.496460 113.727219,262.992126 
z"/>
<path fill="#000000" opacity="1.000000" stroke="none" 
	d="
M111.700027,235.734970 
	C113.600464,235.901749 114.995934,236.318024 117.438156,238.250763 
	C111.973686,238.295792 107.814659,239.151901 102.874710,236.770020 
	C106.207001,234.580032 108.857491,236.130615 111.700027,235.734970 
z"/>
<path fill="#000000" opacity="1.000000" stroke="none" 
	d="
M235.658325,107.800133 
	C235.738342,106.213379 235.225113,104.852127 236.866440,103.368088 
	C239.196915,107.816864 238.026779,112.023643 237.912048,116.171165 
	C235.251511,113.955215 235.910217,110.952682 235.658325,107.800133 
z"/>
<path fill="#000000" opacity="1.000000" stroke="none" 
	d="
M238.274399,394.525818 
	C237.965347,396.116425 238.234482,397.636292 235.617249,398.195984 
	C235.748688,393.835999 234.885498,389.683411 237.552277,384.847687 
	C239.169418,388.470215 238.055023,391.367798 238.274399,394.525818 
z"/>
<path fill="#000000" opacity="1.000000" stroke="none" 
	d="
M263.104309,113.630417 
	C264.407715,110.342606 262.557617,106.708916 265.671967,103.168045 
	C266.853149,108.236328 266.346832,112.190292 264.788849,116.065254 
	C263.115540,116.034843 263.039032,115.052711 263.104309,113.630417 
z"/>
</svg>